<svg xmlns="http://www.w3.org/2000/svg" width="125.236" height="25" viewBox="0 0 125.236 25">
  <g id="그룹_14" data-name="그룹 14" transform="translate(-266.763 -616.918)">
    <path id="합치기_1" data-name="합치기 1" d="M93.975,17.418c0-5.949,4.321-11.234,9.9-11.234,3.391,0,5.75,1.329,5.75,4.587,0,4.287-4.687,5.584-9.872,5.584h-.8a11.49,11.49,0,0,0-.067,1.462c0,1.995.964,3.258,3.058,3.258a6.841,6.841,0,0,0,4.886-1.928l1.03,1.429A9.579,9.579,0,0,1,100.457,24C96.1,24,93.975,21.573,93.975,17.418Zm5.351-3.09h.133c3.723,0,5.651-1.363,5.651-4.188,0-1.1-.6-1.8-1.53-1.8C101.653,8.345,100.024,10.771,99.326,14.328ZM56.542,20.577a7.621,7.621,0,0,1,.2-1.695l1.7-7.18a4.711,4.711,0,0,0,.166-1.263c0-1.2-.665-1.629-2.26-1.629l.266-1.3a9.6,9.6,0,0,1,4.221-1.1,2.529,2.529,0,0,1,2.825,2.826A8.547,8.547,0,0,1,63.422,11l-1.695,7.345a4.621,4.621,0,0,0-.133,1.064c0,.8.365,1.1,1.063,1.1,1.363,0,2.892-1.8,4.055-3.657L68.874,6.616h4.753L71.068,18.948a6.907,6.907,0,0,0-.167,1.263c0,.831.432,1.164,1.563,1.164.266,0,.565-.033.931-.067l.1,1.363a8.63,8.63,0,0,1-4.354,1.164c-2.127,0-3.091-1.1-3.091-3.092,0-.166.034-.465.034-.5C64.586,22.537,62.559,24,60,24A3.109,3.109,0,0,1,56.542,20.577ZM0,17.186c0-5.518,3.324-11,9.506-11,4.121,0,6.979,2.327,6.979,6.913,0,5.618-3.124,10.9-9.605,10.9C2.659,24,0,21.308,0,17.186Zm6.647-6.648a24.116,24.116,0,0,0-1.662,8.542c0,1.828.631,2.825,2.06,2.825.964,0,1.928-.4,2.659-2.061a20.9,20.9,0,0,0,1.762-8.409c0-2.095-.632-3.091-2.095-3.091C8.243,8.345,7.379,8.91,6.647,10.539Zm78.418,10.3a9.169,9.169,0,0,1,.266-1.995l1.628-6.914a3.714,3.714,0,0,0,.1-.8c0-.631-.266-1.03-1-1.03-1.33,0-2.959,1.661-4.288,3.656l-2.094,9.771h-4.82L77.487,11.27a4.276,4.276,0,0,0,.1-.864c0-1.1-.632-1.562-2.294-1.6l.3-1.3a9.382,9.382,0,0,1,4.188-1.1c1.563,0,2.527.9,2.527,3.125a8.746,8.746,0,0,1-.1,1.263c1.7-2.725,3.955-4.62,6.648-4.62a3.049,3.049,0,0,1,3.291,3.39,6.085,6.085,0,0,1-.166,1.5l-1.8,7.877a6.1,6.1,0,0,0-.2,1.363c0,.764.366,1.064,1.4,1.064.3,0,.665-.033,1.1-.067l.1,1.363a9.2,9.2,0,0,1-4.354,1.164C86.03,23.834,85.066,22.771,85.066,20.843Zm-57.427,0a9.187,9.187,0,0,1,.265-1.995l1.629-6.914a3.713,3.713,0,0,0,.1-.8c0-.631-.266-1.03-1-1.03-1.33,0-2.959,1.661-4.288,3.656l-2.094,9.771h-4.82L20.06,11.27a4.3,4.3,0,0,0,.1-.864c0-1.1-.632-1.562-2.294-1.6l.3-1.3a9.379,9.379,0,0,1,4.188-1.1c1.563,0,2.527.9,2.527,3.125a8.74,8.74,0,0,1-.1,1.263c1.695-2.725,3.955-4.62,6.648-4.62a3.05,3.05,0,0,1,3.291,3.39,6.048,6.048,0,0,1-.167,1.5l-1.795,7.877a6.083,6.083,0,0,0-.2,1.363c0,.764.366,1.064,1.4,1.064.3,0,.665-.033,1.1-.067l.1,1.363A9.2,9.2,0,0,1,30.8,23.834C28.6,23.834,27.639,22.771,27.639,20.843Zm10.051,2.692.286-1.557c2.181,0,2.9-.474,3.289-2.4L44.768,2.4H43.231c-2.36,0-2.861,1.016-4.076,3.861H36.474L38.047,0H58l-1,6.265H54.313C54.242,3.386,54.17,2.4,51.883,2.4h-1.5l-3.5,17.168a6.079,6.079,0,0,0-.107,1.016c0,1.084.643,1.388,2.36,1.388l-.287,1.557Zm77.05-17.95a4.748,4.748,0,1,1,4.749,4.749A4.755,4.755,0,0,1,114.739,5.584Zm.726,0a4.022,4.022,0,1,0,4.023-4.023A4.027,4.027,0,0,0,115.465,5.584Zm5.108,2.082-.589-.879a5.787,5.787,0,0,0-.43-.594.621.621,0,0,0-.245-.168,1.337,1.337,0,0,0-.411-.045h-.165V7.665h-.816V3.624h1.717a2.952,2.952,0,0,1,.941.109.931.931,0,0,1,.47.388,1.166,1.166,0,0,1,.176.637,1.08,1.08,0,0,1-.267.751,1.282,1.282,0,0,1-.8.373,1.925,1.925,0,0,1,.437.339,4.639,4.639,0,0,1,.465.656l.493.788Zm-1.841-2.333h.6a3.138,3.138,0,0,0,.733-.049.438.438,0,0,0,.229-.171.524.524,0,0,0,.083-.3.489.489,0,0,0-.109-.33.506.506,0,0,0-.307-.158c-.066-.009-.265-.013-.6-.013h-.637Z" transform="translate(267.263 617.418)" fill="#fbaf17" stroke="rgba(0,0,0,0)" stroke-width="1"/>
  </g>
</svg>
