<svg xmlns="http://www.w3.org/2000/svg" width="32" height="32" viewBox="0 0 100 16">
  <g id="그룹_600" data-name="그룹 600" transform="translate(-239.988 -588.195)">
    <path id="패스_13" data-name="패스 13" d="M-97.345,586.594l34.732-34.732v34.732Zm-.667-35.4h34.7l-34.7,34.7Zm64.826,27.611c0-3.835,2.609-6.715,6.443-6.715a6.356,6.356,0,0,1,6.462,6.715,6.356,6.356,0,0,1-6.462,6.715C-30.577,585.521-33.186,582.64-33.186,578.806Zm1.674,0c0,3.016,1.848,5.274,4.769,5.274,2.9,0,4.788-2.258,4.788-5.274,0-3.037-1.888-5.275-4.788-5.275C-29.663,573.531-31.512,575.769-31.512,578.806Zm-21.755,4.651.973-1.246a5.354,5.354,0,0,0,4.068,1.869c2.316,0,3.056-1.245,3.056-2.258,0-3.348-7.688-1.479-7.688-6.112,0-2.141,1.907-3.62,4.477-3.62a6.1,6.1,0,0,1,4.593,1.829l-.973,1.188a4.895,4.895,0,0,0-3.756-1.557c-1.538,0-2.667.836-2.667,2.063,0,2.92,7.688,1.246,7.688,6.093,0,1.869-1.285,3.815-4.788,3.815A6.458,6.458,0,0,1-53.266,583.457Zm46.523,1.829V572.3h8.5v1.44h-6.89v4.185H1.625v1.44H-5.129v4.477h6.89v1.44Zm-3.138,0-7.572-10.355v10.355h-1.615V572.3h1.655l7.474,10.141V572.3h1.615v12.982Zm-29.106,0V573.745h-4.107V572.3h9.849v1.44h-4.127v11.542ZM-1.246,566.95V556.069L-5.5,566.95H-6.9l-4.252-10.881V566.95h-3.212V551.861h4.5l3.664,9.433,3.664-9.433H1.988V566.95Zm-25.781,0V551.861H-16.35v2.828h-7.464v3.166h7.307v2.828h-7.307v3.438h7.464v2.828Zm-12.661,0V551.861H-29.01v2.828h-7.465v3.166h7.307v2.828h-7.307v3.438h7.465v2.828Zm-9.289,0v-12.26h-4.411v-2.828h12.034v2.828h-4.388v12.26Z" transform="translate(338 37)" fill="#d63228"/>
  </g>
</svg>
